<svg height='100px' width='100px'  fill="#000000" xmlns="http://www.w3.org/2000/svg" viewBox="0 0 15 19" x="0px" y="0px"><path d="M165.207096,2545 L167.903559,2547.6965 L167.196447,2548.4036 L163.292893,2544.5 L167.096446,2540.69649 L167.803548,2541.4036 L165.207118,2544 L169.5,2544 C173.642136,2544 177,2547.35786 177,2551.5 C177,2555.64214 173.642136,2559 169.5,2559 C165.357864,2559 162,2555.64214 162,2551.5 L162,2551 L163,2551 L163,2551.5 C163,2555.08985 165.910149,2558 169.5,2558 C173.089851,2558 176,2555.08985 176,2551.5 C176,2547.91015 173.089851,2545 169.5,2545 L165.207096,2545 Z" transform="translate(-162 -2540)"></path></svg>